<svg width="56" height="24" viewBox="0 0 56 24" fill="none" xmlns="http://www.w3.org/2000/svg">
<g style="mix-blend-mode:lighten">
<rect width="56" height="24" rx="12" fill="#FDF2FA"/>
<path d="M10.679 8.14062V6.81818H18.5589V8.14062H15.3821V17H13.8509V8.14062H10.679ZM22.2901 17.1541C21.5742 17.1541 20.9495 16.9901 20.4158 16.6619C19.8822 16.3338 19.4679 15.8748 19.1729 15.2848C18.878 14.6948 18.7305 14.0054 18.7305 13.2166C18.7305 12.4245 18.878 11.7318 19.1729 11.1385C19.4679 10.5452 19.8822 10.0845 20.4158 9.75639C20.9495 9.42827 21.5742 9.2642 22.2901 9.2642C23.006 9.2642 23.6308 9.42827 24.1644 9.75639C24.698 10.0845 25.1123 10.5452 25.4073 11.1385C25.7023 11.7318 25.8498 12.4245 25.8498 13.2166C25.8498 14.0054 25.7023 14.6948 25.4073 15.2848C25.1123 15.8748 24.698 16.3338 24.1644 16.6619C23.6308 16.9901 23.006 17.1541 22.2901 17.1541ZM22.2951 15.9062C22.7591 15.9062 23.1436 15.7836 23.4485 15.5384C23.7534 15.2931 23.9788 14.9666 24.1246 14.5589C24.2738 14.1513 24.3484 13.7022 24.3484 13.2116C24.3484 12.7244 24.2738 12.277 24.1246 11.8693C23.9788 11.4583 23.7534 11.1286 23.4485 10.88C23.1436 10.6314 22.7591 10.5071 22.2951 10.5071C21.8278 10.5071 21.44 10.6314 21.1317 10.88C20.8268 11.1286 20.5998 11.4583 20.4506 11.8693C20.3048 12.277 20.2319 12.7244 20.2319 13.2116C20.2319 13.7022 20.3048 14.1513 20.4506 14.5589C20.5998 14.9666 20.8268 15.2931 21.1317 15.5384C21.44 15.7836 21.8278 15.9062 22.2951 15.9062ZM30.7257 17.1541C30.0098 17.1541 29.385 16.9901 28.8514 16.6619C28.3178 16.3338 27.9035 15.8748 27.6085 15.2848C27.3135 14.6948 27.166 14.0054 27.166 13.2166C27.166 12.4245 27.3135 11.7318 27.6085 11.1385C27.9035 10.5452 28.3178 10.0845 28.8514 9.75639C29.385 9.42827 30.0098 9.2642 30.7257 9.2642C31.4416 9.2642 32.0663 9.42827 32.6 9.75639C33.1336 10.0845 33.5479 10.5452 33.8429 11.1385C34.1378 11.7318 34.2853 12.4245 34.2853 13.2166C34.2853 14.0054 34.1378 14.6948 33.8429 15.2848C33.5479 15.8748 33.1336 16.3338 32.6 16.6619C32.0663 16.9901 31.4416 17.1541 30.7257 17.1541ZM30.7306 15.9062C31.1947 15.9062 31.5791 15.7836 31.8841 15.5384C32.189 15.2931 32.4144 14.9666 32.5602 14.5589C32.7093 14.1513 32.7839 13.7022 32.7839 13.2116C32.7839 12.7244 32.7093 12.277 32.5602 11.8693C32.4144 11.4583 32.189 11.1286 31.8841 10.88C31.5791 10.6314 31.1947 10.5071 30.7306 10.5071C30.2633 10.5071 29.8755 10.6314 29.5673 10.88C29.2624 11.1286 29.0353 11.4583 28.8862 11.8693C28.7404 12.277 28.6674 12.7244 28.6674 13.2116C28.6674 13.7022 28.7404 14.1513 28.8862 14.5589C29.0353 14.9666 29.2624 15.2931 29.5673 15.5384C29.8755 15.7836 30.2633 15.9062 30.7306 15.9062ZM37.4311 6.81818V17H35.9446V6.81818H37.4311ZM45.1532 11.228L43.8059 11.4666C43.7496 11.2943 43.6601 11.1302 43.5375 10.9744C43.4181 10.8187 43.2557 10.6911 43.0502 10.5916C42.8448 10.4922 42.5879 10.4425 42.2797 10.4425C41.8587 10.4425 41.5074 10.5369 41.2257 10.7259C40.944 10.9115 40.8031 11.1518 40.8031 11.4467C40.8031 11.7019 40.8975 11.9074 41.0865 12.0632C41.2754 12.219 41.5803 12.3466 42.0012 12.446L43.2143 12.7244C43.917 12.8868 44.4406 13.1371 44.7853 13.4751C45.13 13.8132 45.3024 14.2524 45.3024 14.7926C45.3024 15.25 45.1698 15.6577 44.9047 16.0156C44.6428 16.3703 44.2766 16.6487 43.8059 16.8509C43.3386 17.053 42.7967 17.1541 42.1802 17.1541C41.3251 17.1541 40.6274 16.9718 40.0872 16.6072C39.5469 16.2393 39.2155 15.7173 39.0929 15.0412L40.5297 14.8224C40.6191 15.197 40.8031 15.4804 41.0815 15.6726C41.3599 15.8615 41.7228 15.956 42.1703 15.956C42.6575 15.956 43.0469 15.8549 43.3386 15.6527C43.6303 15.4472 43.7761 15.197 43.7761 14.902C43.7761 14.6634 43.6866 14.4628 43.5076 14.3004C43.332 14.138 43.0618 14.0154 42.6973 13.9325L41.4047 13.6491C40.6921 13.4867 40.1651 13.2282 39.8237 12.8736C39.4856 12.5189 39.3166 12.0698 39.3166 11.5263C39.3166 11.0755 39.4425 10.6811 39.6944 10.343C39.9463 10.005 40.2943 9.74148 40.7385 9.55256C41.1826 9.36032 41.6913 9.2642 42.2647 9.2642C43.09 9.2642 43.7396 9.44318 44.2136 9.80114C44.6876 10.1558 45.0008 10.6314 45.1532 11.228Z" fill="#C11574"/>
</g>
</svg>
