<svg width="54" height="24" viewBox="0 0 54 24" fill="none" xmlns="http://www.w3.org/2000/svg">
<g style="mix-blend-mode:lighten">
<rect width="54" height="24" rx="12" fill="#FFF1F3"/>
<path d="M16.6914 9.4929C16.6384 9.02225 16.4196 8.65767 16.0352 8.39915C15.6507 8.13731 15.1668 8.00639 14.5835 8.00639C14.1658 8.00639 13.8046 8.07268 13.4996 8.20526C13.1947 8.33452 12.9577 8.51349 12.7887 8.74219C12.623 8.96757 12.5401 9.22443 12.5401 9.51278C12.5401 9.75473 12.5965 9.96354 12.7092 10.1392C12.8252 10.3149 12.976 10.4624 13.1616 10.5817C13.3505 10.6977 13.5527 10.7955 13.7681 10.875C13.9835 10.9512 14.1907 11.0142 14.3896 11.0639L15.3839 11.3224C15.7087 11.402 16.0418 11.5097 16.3832 11.6456C16.7246 11.7815 17.0411 11.9605 17.3327 12.1825C17.6244 12.4046 17.8597 12.6797 18.0387 13.0078C18.221 13.3359 18.3121 13.7287 18.3121 14.1861C18.3121 14.7628 18.163 15.2749 17.8647 15.7223C17.5697 16.1697 17.1405 16.5227 16.5771 16.7812C16.0169 17.0398 15.3391 17.169 14.5437 17.169C13.7814 17.169 13.1218 17.0481 12.565 16.8061C12.0082 16.5642 11.5723 16.2211 11.2575 15.777C10.9426 15.3295 10.7686 14.7992 10.7354 14.1861H12.2766C12.3065 14.554 12.4258 14.8606 12.6346 15.1058C12.8467 15.3478 13.1168 15.5284 13.445 15.6477C13.7764 15.7637 14.1393 15.8217 14.5337 15.8217C14.9679 15.8217 15.354 15.7538 15.6921 15.6179C16.0335 15.4787 16.302 15.2865 16.4975 15.0412C16.6931 14.7926 16.7908 14.5026 16.7908 14.1712C16.7908 13.8696 16.7047 13.6226 16.5323 13.4304C16.3633 13.2382 16.1329 13.0791 15.8413 12.9531C15.5529 12.8272 15.2264 12.7161 14.8619 12.62L13.6587 12.2919C12.8434 12.0698 12.1971 11.7434 11.7198 11.3125C11.2459 10.8816 11.0089 10.3116 11.0089 9.60227C11.0089 9.01562 11.168 8.50355 11.4862 8.06605C11.8043 7.62855 12.2352 7.28883 12.7788 7.04688C13.3223 6.80161 13.9355 6.67898 14.6183 6.67898C15.3076 6.67898 15.9158 6.79995 16.4428 7.0419C16.9731 7.28385 17.3907 7.61695 17.6957 8.04119C18.0006 8.46212 18.1597 8.94602 18.1729 9.4929H16.6914ZM22.2509 17.169C21.767 17.169 21.3295 17.0795 20.9384 16.9006C20.5473 16.7183 20.2374 16.4548 20.0087 16.1101C19.7833 15.7654 19.6706 15.3428 19.6706 14.8423C19.6706 14.4115 19.7535 14.0568 19.9192 13.7784C20.0849 13.5 20.3087 13.2796 20.5904 13.1172C20.8721 12.9548 21.187 12.8321 21.535 12.7493C21.883 12.6664 22.2376 12.6035 22.5989 12.5604C23.0563 12.5073 23.4275 12.4643 23.7125 12.4311C23.9976 12.3946 24.2047 12.3366 24.334 12.2571C24.4632 12.1776 24.5279 12.0483 24.5279 11.8693V11.8345C24.5279 11.4003 24.4052 11.0639 24.16 10.8253C23.918 10.5866 23.5568 10.4673 23.0762 10.4673C22.5757 10.4673 22.1813 10.5784 21.8929 10.8004C21.6079 11.0192 21.4107 11.2628 21.3013 11.5312L19.9043 11.2131C20.07 10.7491 20.312 10.3745 20.6301 10.0895C20.9516 9.80114 21.3212 9.59233 21.7388 9.46307C22.1564 9.33049 22.5956 9.2642 23.0563 9.2642C23.3612 9.2642 23.6844 9.30066 24.0257 9.37358C24.3704 9.44318 24.6919 9.57244 24.9902 9.76136C25.2918 9.95028 25.5388 10.2204 25.731 10.5717C25.9232 10.9197 26.0194 11.3722 26.0194 11.929V17H24.5676V15.956H24.508C24.4119 16.1482 24.2677 16.3371 24.0755 16.5227C23.8832 16.7083 23.6363 16.8625 23.3347 16.9851C23.0331 17.1077 22.6718 17.169 22.2509 17.169ZM22.574 15.9759C22.985 15.9759 23.3364 15.8946 23.628 15.7322C23.923 15.5698 24.1467 15.3577 24.2992 15.0959C24.455 14.8307 24.5328 14.5473 24.5328 14.2457V13.2614C24.4798 13.3144 24.3771 13.3641 24.2246 13.4105C24.0755 13.4536 23.9048 13.4917 23.7125 13.5249C23.5203 13.5547 23.333 13.5829 23.1507 13.6094C22.9685 13.6326 22.816 13.6525 22.6934 13.669C22.405 13.7055 22.1415 13.7668 21.9029 13.853C21.6676 13.9392 21.4786 14.0634 21.3361 14.2259C21.1969 14.3849 21.1273 14.5971 21.1273 14.8622C21.1273 15.2301 21.2632 15.5085 21.535 15.6974C21.8068 15.883 22.1531 15.9759 22.574 15.9759ZM30.2216 17.169C29.7377 17.169 29.3002 17.0795 28.9091 16.9006C28.518 16.7183 28.2081 16.4548 27.9794 16.1101C27.754 15.7654 27.6413 15.3428 27.6413 14.8423C27.6413 14.4115 27.7242 14.0568 27.8899 13.7784C28.0556 13.5 28.2794 13.2796 28.5611 13.1172C28.8428 12.9548 29.1577 12.8321 29.5057 12.7493C29.8537 12.6664 30.2083 12.6035 30.5696 12.5604C31.027 12.5073 31.3982 12.4643 31.6832 12.4311C31.9683 12.3946 32.1754 12.3366 32.3047 12.2571C32.4339 12.1776 32.4986 12.0483 32.4986 11.8693V11.8345C32.4986 11.4003 32.3759 11.0639 32.1307 10.8253C31.8887 10.5866 31.5275 10.4673 31.0469 10.4673C30.5464 10.4673 30.152 10.5784 29.8636 10.8004C29.5786 11.0192 29.3814 11.2628 29.272 11.5312L27.875 11.2131C28.0407 10.7491 28.2827 10.3745 28.6009 10.0895C28.9223 9.80114 29.2919 9.59233 29.7095 9.46307C30.1271 9.33049 30.5663 9.2642 31.027 9.2642C31.3319 9.2642 31.6551 9.30066 31.9964 9.37358C32.3411 9.44318 32.6626 9.57244 32.9609 9.76136C33.2625 9.95028 33.5095 10.2204 33.7017 10.5717C33.8939 10.9197 33.9901 11.3722 33.9901 11.929V17H32.5384V15.956H32.4787C32.3826 16.1482 32.2384 16.3371 32.0462 16.5227C31.8539 16.7083 31.607 16.8625 31.3054 16.9851C31.0038 17.1077 30.6425 17.169 30.2216 17.169ZM30.5447 15.9759C30.9557 15.9759 31.3071 15.8946 31.5987 15.7322C31.8937 15.5698 32.1174 15.3577 32.2699 15.0959C32.4257 14.8307 32.5036 14.5473 32.5036 14.2457V13.2614C32.4505 13.3144 32.3478 13.3641 32.1953 13.4105C32.0462 13.4536 31.8755 13.4917 31.6832 13.5249C31.491 13.5547 31.3037 13.5829 31.1214 13.6094C30.9392 13.6326 30.7867 13.6525 30.6641 13.669C30.3757 13.7055 30.1122 13.7668 29.8736 13.853C29.6383 13.9392 29.4493 14.0634 29.3068 14.2259C29.1676 14.3849 29.098 14.5971 29.098 14.8622C29.098 15.2301 29.2339 15.5085 29.5057 15.6974C29.7775 15.883 30.1238 15.9759 30.5447 15.9759ZM41.6426 9.4929C41.5895 9.02225 41.3708 8.65767 40.9863 8.39915C40.6019 8.13731 40.118 8.00639 39.5346 8.00639C39.117 8.00639 38.7557 8.07268 38.4508 8.20526C38.1459 8.33452 37.9089 8.51349 37.7399 8.74219C37.5742 8.96757 37.4913 9.22443 37.4913 9.51278C37.4913 9.75473 37.5476 9.96354 37.6603 10.1392C37.7763 10.3149 37.9271 10.4624 38.1127 10.5817C38.3017 10.6977 38.5038 10.7955 38.7193 10.875C38.9347 10.9512 39.1419 11.0142 39.3407 11.0639L40.335 11.3224C40.6599 11.402 40.993 11.5097 41.3343 11.6456C41.6757 11.7815 41.9922 11.9605 42.2839 12.1825C42.5756 12.4046 42.8109 12.6797 42.9899 13.0078C43.1722 13.3359 43.2633 13.7287 43.2633 14.1861C43.2633 14.7628 43.1142 15.2749 42.8159 15.7223C42.5209 16.1697 42.0917 16.5227 41.5282 16.7812C40.9681 17.0398 40.2903 17.169 39.4949 17.169C38.7325 17.169 38.073 17.0481 37.5162 16.8061C36.9593 16.5642 36.5235 16.2211 36.2086 15.777C35.8938 15.3295 35.7198 14.7992 35.6866 14.1861H37.2278C37.2576 14.554 37.377 14.8606 37.5858 15.1058C37.7979 15.3478 38.068 15.5284 38.3961 15.6477C38.7276 15.7637 39.0905 15.8217 39.4849 15.8217C39.9191 15.8217 40.3052 15.7538 40.6433 15.6179C40.9847 15.4787 41.2531 15.2865 41.4487 15.0412C41.6442 14.7926 41.742 14.5026 41.742 14.1712C41.742 13.8696 41.6558 13.6226 41.4835 13.4304C41.3145 13.2382 41.0841 13.0791 40.7924 12.9531C40.5041 12.8272 40.1776 12.7161 39.813 12.62L38.6099 12.2919C37.7946 12.0698 37.1483 11.7434 36.671 11.3125C36.197 10.8816 35.96 10.3116 35.96 9.60227C35.96 9.01562 36.1191 8.50355 36.4373 8.06605C36.7555 7.62855 37.1864 7.28883 37.7299 7.04688C38.2735 6.80161 38.8867 6.67898 39.5694 6.67898C40.2588 6.67898 40.867 6.79995 41.394 7.0419C41.9243 7.28385 42.3419 7.61695 42.6468 8.04119C42.9518 8.46212 43.1109 8.94602 43.1241 9.4929H41.6426Z" fill="#C01048"/>
</g>
</svg>
