<svg width="58" height="40" viewBox="0 0 58 40" fill="none" xmlns="http://www.w3.org/2000/svg">
<path d="M9.76136 27V12.4545H14.8466C15.8598 12.4545 16.6955 12.6297 17.3537 12.9801C18.0118 13.3258 18.5019 13.7921 18.8239 14.3793C19.1458 14.9616 19.3068 15.608 19.3068 16.3182C19.3068 16.9432 19.1955 17.4593 18.973 17.8665C18.7552 18.2737 18.4664 18.5956 18.1065 18.8324C17.7514 19.0691 17.3655 19.2443 16.9489 19.358V19.5C17.3939 19.5284 17.8414 19.6847 18.2912 19.9688C18.741 20.2528 19.1174 20.66 19.4205 21.1903C19.7235 21.7206 19.875 22.3693 19.875 23.1364C19.875 23.8655 19.7093 24.5213 19.3778 25.1037C19.0464 25.6861 18.5232 26.1477 17.8082 26.4886C17.0933 26.8295 16.1629 27 15.017 27H9.76136ZM11.5227 25.4375H15.017C16.1676 25.4375 16.9844 25.215 17.4673 24.7699C17.955 24.3201 18.1989 23.7756 18.1989 23.1364C18.1989 22.6439 18.0734 22.1894 17.8224 21.7727C17.5715 21.3513 17.214 21.0152 16.75 20.7642C16.286 20.5085 15.7367 20.3807 15.1023 20.3807H11.5227V25.4375ZM11.5227 18.8466H14.7898C15.3201 18.8466 15.7983 18.7424 16.2244 18.5341C16.6553 18.3258 16.9962 18.0322 17.2472 17.6534C17.5028 17.2746 17.6307 16.8295 17.6307 16.3182C17.6307 15.679 17.4081 15.1368 16.9631 14.6918C16.518 14.242 15.8125 14.017 14.8466 14.017H11.5227V18.8466ZM24.218 12.4545V27H22.5419V12.4545H24.218ZM31.7198 27.2273C30.735 27.2273 29.8709 26.9929 29.1275 26.5241C28.3888 26.0554 27.8112 25.3996 27.3945 24.5568C26.9826 23.714 26.7766 22.7292 26.7766 21.6023C26.7766 20.4659 26.9826 19.474 27.3945 18.6264C27.8112 17.7789 28.3888 17.1207 29.1275 16.652C29.8709 16.1832 30.735 15.9489 31.7198 15.9489C32.7047 15.9489 33.5664 16.1832 34.305 16.652C35.0484 17.1207 35.6261 17.7789 36.038 18.6264C36.4547 19.474 36.663 20.4659 36.663 21.6023C36.663 22.7292 36.4547 23.714 36.038 24.5568C35.6261 25.3996 35.0484 26.0554 34.305 26.5241C33.5664 26.9929 32.7047 27.2273 31.7198 27.2273ZM31.7198 25.7216C32.4679 25.7216 33.0835 25.5298 33.5664 25.1463C34.0494 24.7628 34.4068 24.2585 34.6388 23.6335C34.8709 23.0085 34.9869 22.3314 34.9869 21.6023C34.9869 20.8731 34.8709 20.1937 34.6388 19.5639C34.4068 18.9342 34.0494 18.4252 33.5664 18.0369C33.0835 17.6487 32.4679 17.4545 31.7198 17.4545C30.9717 17.4545 30.3562 17.6487 29.8732 18.0369C29.3903 18.4252 29.0328 18.9342 28.8008 19.5639C28.5688 20.1937 28.4528 20.8731 28.4528 21.6023C28.4528 22.3314 28.5688 23.0085 28.8008 23.6335C29.0328 24.2585 29.3903 24.7628 29.8732 25.1463C30.3562 25.5298 30.9717 25.7216 31.7198 25.7216ZM43.625 31.3182C42.8153 31.3182 42.1193 31.214 41.5369 31.0057C40.9545 30.8021 40.4692 30.5322 40.081 30.196C39.6974 29.8646 39.392 29.5095 39.1648 29.1307L40.5 28.1932C40.6515 28.392 40.8433 28.6193 41.0753 28.875C41.3073 29.1354 41.6245 29.3603 42.027 29.5497C42.4342 29.7438 42.9669 29.8409 43.625 29.8409C44.5057 29.8409 45.2325 29.6278 45.8054 29.2017C46.3783 28.7756 46.6648 28.108 46.6648 27.1989V24.983H46.5227C46.3996 25.1818 46.2244 25.428 45.9972 25.7216C45.7746 26.0104 45.4527 26.2685 45.0312 26.4957C44.6146 26.7183 44.0511 26.8295 43.3409 26.8295C42.4602 26.8295 41.6695 26.6212 40.9688 26.2045C40.2727 25.7879 39.7211 25.1818 39.3139 24.3864C38.9115 23.5909 38.7102 22.625 38.7102 21.4886C38.7102 20.3712 38.9067 19.3982 39.2997 18.5696C39.6927 17.7363 40.2396 17.0923 40.9403 16.6378C41.6411 16.1785 42.4508 15.9489 43.3693 15.9489C44.0795 15.9489 44.643 16.0672 45.0597 16.304C45.4811 16.536 45.803 16.8011 46.0256 17.0994C46.2528 17.393 46.428 17.6345 46.5511 17.8239H46.7216V16.0909H48.3409V27.3125C48.3409 28.25 48.1278 29.0123 47.7017 29.5994C47.2803 30.1913 46.7121 30.6245 45.9972 30.8991C45.2869 31.1785 44.4962 31.3182 43.625 31.3182ZM43.5682 25.3239C44.2405 25.3239 44.8087 25.17 45.2727 24.8622C45.7367 24.5545 46.0895 24.1117 46.331 23.5341C46.5724 22.9564 46.6932 22.2652 46.6932 21.4602C46.6932 20.6742 46.5748 19.9806 46.3381 19.3793C46.1013 18.7779 45.7509 18.3068 45.2869 17.9659C44.8229 17.625 44.25 17.4545 43.5682 17.4545C42.858 17.4545 42.2661 17.6345 41.7926 17.9943C41.3239 18.3542 40.9711 18.8371 40.7344 19.4432C40.5024 20.0492 40.3864 20.7216 40.3864 21.4602C40.3864 22.2178 40.5047 22.8878 40.7415 23.4702C40.983 24.0478 41.3381 24.5024 41.8068 24.8338C42.2803 25.1605 42.8674 25.3239 43.5682 25.3239Z" fill="white"/>
</svg>
